<?xml version="1.0" encoding="utf-8"?>
<!-- Generator: Adobe Illustrator 22.0.1, SVG Export Plug-In . SVG Version: 6.00 Build 0)  -->
<svg version="1.1" id="Layer_1" xmlns="http://www.w3.org/2000/svg" xmlns:xlink="http://www.w3.org/1999/xlink" x="0px" y="0px"
	 viewBox="220 390 650 300" style="enable-background:new 0 0 1080 1080;" xml:space="preserve">
<style type="text/css">
	.st0{fill:url(#SVGID_1_);}
	.st1{fill:url(#SVGID_2_);}
	.st2{fill:url(#SVGID_3_);}
	.st3{fill:url(#SVGID_4_);}
	.st4{fill:url(#SVGID_5_);}
	.st5{fill:url(#SVGID_6_);}
	.st6{fill:url(#SVGID_7_);}
	.st7{fill:url(#SVGID_8_);}
	.st8{fill:url(#SVGID_9_);}
	.st9{fill:url(#SVGID_10_);}
	.st10{fill:url(#SVGID_11_);}
	.st11{fill:url(#SVGID_12_);}
	.st12{fill:#FFFFFF;}
</style>
<g>
	<g>
		<linearGradient id="SVGID_1_" gradientUnits="userSpaceOnUse" x1="127.6612" y1="367.9462" x2="861.653" y2="837.0955">
			<stop  offset="0" style="stop-color:#21AACF"/>
			<stop  offset="0.5165" style="stop-color:#2B8FCB"/>
			<stop  offset="1" style="stop-color:#7DA2D2"/>
		</linearGradient>
		<path class="st0" d="M315.9,397.9c-49.8,0-90.4,40.5-90.4,90.4s40.5,90.4,90.4,90.4c25.1,0,47.9-10.3,64.3-26.9v27h26.1v-90.5
			C406.3,438.5,365.8,397.9,315.9,397.9z M315.9,552.6c-35.4,0-64.3-28.8-64.3-64.3s28.8-64.3,64.3-64.3s64.3,28.8,64.3,64.3
			S351.4,552.6,315.9,552.6z"/>
		<linearGradient id="SVGID_2_" gradientUnits="userSpaceOnUse" x1="127.6612" y1="367.9462" x2="861.653" y2="837.0955">
			<stop  offset="0" style="stop-color:#21AACF"/>
			<stop  offset="0.5165" style="stop-color:#2B8FCB"/>
			<stop  offset="1" style="stop-color:#7DA2D2"/>
		</linearGradient>
		<circle class="st1" cx="315.9" cy="488.3" r="36.6"/>
		<linearGradient id="SVGID_3_" gradientUnits="userSpaceOnUse" x1="187.9911" y1="273.5591" x2="921.9828" y2="742.7085">
			<stop  offset="0" style="stop-color:#21AACF"/>
			<stop  offset="0.5165" style="stop-color:#2B8FCB"/>
			<stop  offset="1" style="stop-color:#7DA2D2"/>
		</linearGradient>
		<circle class="st2" cx="523.9" cy="488.3" r="36.6"/>
		<linearGradient id="SVGID_4_" gradientUnits="userSpaceOnUse" x1="257.825" y1="164.3029" x2="991.8167" y2="633.4523">
			<stop  offset="0" style="stop-color:#21AACF"/>
			<stop  offset="0.5165" style="stop-color:#2B8FCB"/>
			<stop  offset="1" style="stop-color:#7DA2D2"/>
		</linearGradient>
		<circle class="st3" cx="764.7" cy="488.3" r="36.6"/>
		<linearGradient id="SVGID_5_" gradientUnits="userSpaceOnUse" x1="155.1341" y1="324.9643" x2="889.1259" y2="794.1137">
			<stop  offset="0" style="stop-color:#21AACF"/>
			<stop  offset="0.5165" style="stop-color:#2B8FCB"/>
			<stop  offset="1" style="stop-color:#7DA2D2"/>
		</linearGradient>
		<path class="st4" d="M523.9,397.9c-47.1,0-85.9,36.3-90,82.3h-0.4v202.3h26.1V551.8c16.4,16.6,39.1,26.9,64.3,26.9
			c49.8,0,90.4-40.5,90.4-90.4S573.8,397.9,523.9,397.9z M523.9,552.6c-35.4,0-64.3-28.8-64.3-64.3s28.8-64.3,64.3-64.3
			s64.3,28.8,64.3,64.3S559.4,552.6,523.9,552.6z"/>
		<linearGradient id="SVGID_6_" gradientUnits="userSpaceOnUse" x1="257.6381" y1="164.5953" x2="991.6298" y2="633.7446">
			<stop  offset="0" style="stop-color:#21AACF"/>
			<stop  offset="0.5165" style="stop-color:#2B8FCB"/>
			<stop  offset="1" style="stop-color:#7DA2D2"/>
		</linearGradient>
		<path class="st5" d="M764.1,397.9c-49.8,0-90.4,40.5-90.4,90.4s40.5,90.4,90.4,90.4c49.8,0,90.4-40.5,90.4-90.4
			S813.9,397.9,764.1,397.9z M764.1,552.6c-35.4,0-64.3-28.8-64.3-64.3s28.8-64.3,64.3-64.3s64.3,28.8,64.3,64.3
			S799.5,552.6,764.1,552.6z"/>
		<linearGradient id="SVGID_7_" gradientUnits="userSpaceOnUse" x1="223.6979" y1="217.6952" x2="957.6896" y2="686.8446">
			<stop  offset="0" style="stop-color:#21AACF"/>
			<stop  offset="0.5165" style="stop-color:#2B8FCB"/>
			<stop  offset="1" style="stop-color:#7DA2D2"/>
		</linearGradient>
		<polygon class="st6" points="633.7,423.8 633.7,578.8 659.8,578.8 659.8,423.8 659.8,397.4 633.7,397.4 		"/>
		<g>
			<linearGradient id="SVGID_8_" gradientUnits="userSpaceOnUse" x1="228.7556" y1="475.8403" x2="739.8826" y2="802.54">
				<stop  offset="0" style="stop-color:#21AACF"/>
				<stop  offset="0.5165" style="stop-color:#2B8FCB"/>
				<stop  offset="1" style="stop-color:#7DA2D2"/>
			</linearGradient>
			<path class="st7" d="M510.4,656.1c8.1-3.6,17.3-7.5,17.3-19.1c0-10-8.4-18.2-19.8-18.2c-10.9,0-19.7,9.1-19.7,22.1h5.1
				c0-9.7,6-17.2,14.6-17.2c8.2,0,14.6,5.9,14.6,13.9c0,7.6-5.8,10.3-14.9,14.3c-9.4,4.1-19.5,9.1-20,24v4.9H528V676h-35.1
				C493.2,664,500.9,660.3,510.4,656.1z"/>
			<linearGradient id="SVGID_9_" gradientUnits="userSpaceOnUse" x1="248.2895" y1="445.2792" x2="759.4165" y2="771.9789">
				<stop  offset="0" style="stop-color:#21AACF"/>
				<stop  offset="0.5165" style="stop-color:#2B8FCB"/>
				<stop  offset="1" style="stop-color:#7DA2D2"/>
			</linearGradient>
			<path class="st8" d="M568.3,618.7c-17.9,0-31.4,13.4-31.4,31.1c0,17.7,13.5,31.1,31.4,31.1c17.9,0,31.4-13.4,31.4-31.1
				C599.7,632.1,586.2,618.7,568.3,618.7z M568.3,675.8c-15.1,0-26.3-11.1-26.3-26c0-14.9,11.2-26,26.3-26s26.3,11.1,26.3,26
				C594.5,664.7,583.3,675.8,568.3,675.8z"/>
			<linearGradient id="SVGID_10_" gradientUnits="userSpaceOnUse" x1="263.9951" y1="420.7075" x2="775.1221" y2="747.4072">
				<stop  offset="0" style="stop-color:#21AACF"/>
				<stop  offset="0.5165" style="stop-color:#2B8FCB"/>
				<stop  offset="1" style="stop-color:#7DA2D2"/>
			</linearGradient>
			<path class="st9" d="M631.9,656.1c8.1-3.6,17.3-7.5,17.3-19.1c0-10-8.4-18.2-19.8-18.2c-10.9,0-19.7,9.1-19.7,22.1h5.1
				c0-9.7,6-17.2,14.6-17.2c8.2,0,14.6,5.9,14.6,13.9c0,7.6-5.8,10.3-14.9,14.3c-9.4,4.1-19.5,9.1-20,24v4.9h40.3V676h-35.1
				C614.7,664,622.4,660.3,631.9,656.1z"/>
			<linearGradient id="SVGID_11_" gradientUnits="userSpaceOnUse" x1="278.0075" y1="398.785" x2="789.1344" y2="725.4847">
				<stop  offset="0" style="stop-color:#21AACF"/>
				<stop  offset="0.5165" style="stop-color:#2B8FCB"/>
				<stop  offset="1" style="stop-color:#7DA2D2"/>
			</linearGradient>
			<polygon class="st10" points="656.5,618.8 656.5,623.6 668.2,623.6 668.2,680.9 673.3,680.9 673.3,618.8 			"/>
			<linearGradient id="SVGID_12_" gradientUnits="userSpaceOnUse" x1="248.296" y1="445.269" x2="759.423" y2="771.9688">
				<stop  offset="0" style="stop-color:#21AACF"/>
				<stop  offset="0.5165" style="stop-color:#2B8FCB"/>
				<stop  offset="1" style="stop-color:#7DA2D2"/>
			</linearGradient>
			<circle class="st11" cx="567.8" cy="649.5" r="11.9"/>
		</g>
	</g>
</g>
<g>
	<g>
		<path class="st12" d="M1415.9,397.9c-49.8,0-90.4,40.5-90.4,90.4s40.5,90.4,90.4,90.4c25.1,0,47.9-10.3,64.3-26.9v27h26.1v-90.5
			C1506.3,438.5,1465.8,397.9,1415.9,397.9z M1415.9,552.6c-35.4,0-64.3-28.8-64.3-64.3s28.8-64.3,64.3-64.3s64.3,28.8,64.3,64.3
			S1451.4,552.6,1415.9,552.6z"/>
		
			<ellipse transform="matrix(0.7071 -0.7071 0.7071 0.7071 69.4467 1144.2366)" class="st12" cx="1415.9" cy="488.3" rx="36.6" ry="36.6"/>
		
			<ellipse transform="matrix(0.9732 -0.2298 0.2298 0.9732 -68.7438 386.1674)" class="st12" cx="1623.9" cy="488.3" rx="36.6" ry="36.6"/>
		
			<ellipse transform="matrix(0.9732 -0.2298 0.2298 0.9732 -62.303 441.4844)" class="st12" cx="1864.7" cy="488.3" rx="36.6" ry="36.6"/>
		<path class="st12" d="M1623.9,397.9c-47.1,0-85.9,36.3-90,82.3h-0.4v202.3h26.1V551.8c16.4,16.6,39.1,26.9,64.3,26.9
			c49.8,0,90.4-40.5,90.4-90.4S1673.8,397.9,1623.9,397.9z M1623.9,552.6c-35.4,0-64.3-28.8-64.3-64.3s28.8-64.3,64.3-64.3
			s64.3,28.8,64.3,64.3S1659.4,552.6,1623.9,552.6z"/>
		<path class="st12" d="M1864.1,397.9c-49.8,0-90.4,40.5-90.4,90.4s40.5,90.4,90.4,90.4c49.8,0,90.4-40.5,90.4-90.4
			S1913.9,397.9,1864.1,397.9z M1864.1,552.6c-35.4,0-64.3-28.8-64.3-64.3s28.8-64.3,64.3-64.3s64.3,28.8,64.3,64.3
			S1899.5,552.6,1864.1,552.6z"/>
		<polygon class="st12" points="1733.7,423.8 1733.7,578.8 1759.8,578.8 1759.8,423.8 1759.8,397.4 1733.7,397.4 		"/>
		<g>
			<path class="st12" d="M1610.4,656.1c8.1-3.6,17.3-7.5,17.3-19.1c0-10-8.4-18.2-19.8-18.2c-10.9,0-19.7,9.1-19.7,22.1h5.1
				c0-9.7,6-17.2,14.6-17.2c8.2,0,14.6,5.9,14.6,13.9c0,7.6-5.8,10.3-14.9,14.3c-9.4,4.1-19.5,9.1-20,24v4.9h40.3V676h-35.1
				C1593.2,664,1600.9,660.3,1610.4,656.1z"/>
			<path class="st12" d="M1668.3,618.7c-17.9,0-31.4,13.4-31.4,31.1c0,17.7,13.5,31.1,31.4,31.1s31.4-13.4,31.4-31.1
				C1699.7,632.1,1686.2,618.7,1668.3,618.7z M1668.3,675.8c-15.1,0-26.3-11.1-26.3-26c0-14.9,11.2-26,26.3-26s26.3,11.1,26.3,26
				C1694.5,664.7,1683.3,675.8,1668.3,675.8z"/>
			<path class="st12" d="M1731.9,656.1c8.1-3.6,17.3-7.5,17.3-19.1c0-10-8.4-18.2-19.8-18.2c-10.9,0-19.7,9.1-19.7,22.1h5.1
				c0-9.7,6-17.2,14.6-17.2c8.2,0,14.6,5.9,14.6,13.9c0,7.6-5.8,10.3-14.9,14.3c-9.4,4.1-19.5,9.1-20,24v4.9h40.3V676h-35.1
				C1714.7,664,1722.4,660.3,1731.9,656.1z"/>
			<polygon class="st12" points="1756.5,618.8 1756.5,623.6 1768.2,623.6 1768.2,680.9 1773.3,680.9 1773.3,618.8 			"/>
			<circle class="st12" cx="1667.8" cy="649.5" r="11.9"/>
		</g>
	</g>
</g>
</svg>
